<svg width="79" height="79" viewBox="0 0 79 79" fill="none" xmlns="http://www.w3.org/2000/svg">
<g clip-path="url(#clip0)">
<path d="M74.5064 35.1072C72.1244 27.5284 70.5936 24.0192 69.8928 22.6017L69.8925 22.6012C69.3292 21.4408 67.9014 18.9437 67.8446 18.8444C67.6446 18.6003 62.6864 12.6669 50.7364 8.2782L49.1573 12.5774C54.8077 14.6525 58.6751 17.0489 61.0709 18.8505C54.4535 16.8773 46.5849 15.6696 39.6159 15.6696C32.6385 15.6696 24.7605 16.8808 18.1383 18.8583C20.3563 17.2127 24.3896 14.6654 30.0746 12.5774L28.4955 8.2782C16.5456 12.6669 11.5873 18.6003 11.3873 18.8444C11.3873 18.8444 10.2094 20.7458 9.21982 22.8336C8.62669 24.0849 7.0902 26.942 4.71051 35.1566C1.72594 45.4619 0.665939 60.0282 0.624565 60.6109C1.15143 61.7634 7.25829 71.483 23.6915 71.483L28.1946 64.9624C31.9114 65.9265 35.7457 66.4143 39.6162 66.4143C43.495 66.4143 47.337 65.9243 51.0608 64.9564L55.5361 71.483C72.2962 71.483 77.767 62.0943 78.6246 60.5847C78.5583 59.8908 76.8985 42.7186 74.5064 35.1072ZM70.1202 62.8676C66.6342 65.3347 62.5386 66.6813 57.9319 66.8778L55.6216 63.5085C58.808 62.3077 61.8651 60.7453 64.7379 58.8331L62.2 55.0204C58.9956 57.1534 55.5361 58.8037 51.9148 59.9465V59.9509C51.9148 59.9509 45.9185 61.8341 39.6164 61.8341C33.3143 61.8341 27.3347 59.9564 27.3347 59.9564V59.9517C23.7074 58.8088 20.2421 57.1566 17.0328 55.0204L14.4948 58.8329C17.3726 60.7485 20.4355 62.3131 23.628 63.5146L21.3054 66.8778C16.6967 66.6822 12.5995 65.3355 9.11234 62.8674C7.16822 61.4914 5.9157 60.0964 5.31372 59.3454C5.57936 56.2083 6.66639 44.8681 9.1105 36.4308C10.9448 30.0988 12.2111 27.1356 12.9024 25.7049C12.9024 25.7049 30.6289 20.2496 39.6164 20.2496C48.5965 20.2496 59.5533 22.4806 66.2704 25.6765C66.9966 27.3311 68.2896 30.6015 70.1371 36.4803C72.0863 42.6823 73.5401 55.8616 73.9027 59.3653C73.2919 60.1242 72.045 61.5051 70.1202 62.8676Z" fill="white"/>
<path d="M24.4471 39.5049H29.0273V47.1385H24.4471V39.5049Z" fill="white"/>
<path d="M50.2052 39.5049H54.7853V47.1385H50.2052V39.5049Z" fill="white"/>
</g>
<defs>
<clipPath id="clip0">
<rect width="78" height="78" fill="white" transform="translate(0.624573 0.880615)"/>
</clipPath>
</defs>
</svg>
