<svg width="79" height="78" viewBox="0 0 79 78" fill="none" xmlns="http://www.w3.org/2000/svg">
<g clip-path="url(#clip0)">
<path d="M78.419 22.9322C78.2362 18.7878 77.566 15.9385 76.606 13.4696C75.6155 10.8489 74.0918 8.50256 72.0955 6.55206C70.145 4.57121 67.7832 3.03199 65.1928 2.05704C62.7096 1.09697 59.8752 0.426765 55.7308 0.244036C51.5554 0.0458311 50.2299 0 39.6399 0C29.05 0 27.7244 0.0458311 23.5645 0.22856C19.4201 0.411289 16.5708 1.08209 14.1025 2.04157C11.4812 3.03199 9.13487 4.55573 7.18437 6.55206C5.20352 8.50256 3.6649 10.8644 2.68935 13.4547C1.72928 15.9385 1.05908 18.7723 0.876348 22.9167C0.678144 27.0921 0.632313 28.4177 0.632313 39.0076C0.632313 49.5976 0.678144 50.9231 0.860873 55.083C1.0436 59.2275 1.7144 62.0767 2.67447 64.5457C3.6649 67.1664 5.20352 69.5127 7.18437 71.4632C9.13487 73.444 11.4967 74.9832 14.087 75.9582C16.5708 76.9183 19.4046 77.5885 23.5496 77.7712C27.709 77.9545 29.0351 77.9998 39.625 77.9998C50.215 77.9998 51.5405 77.9545 55.7004 77.7712C59.8449 77.5885 62.6941 76.9183 65.1625 75.9582C70.4045 73.9315 74.5489 69.7871 76.5756 64.5457C77.5351 62.0618 78.2059 59.2275 78.3886 55.083C78.5713 50.9231 78.6172 49.5976 78.6172 39.0076C78.6172 28.4177 78.6017 27.0921 78.419 22.9322ZM71.3949 54.7783C71.2271 58.5876 70.5872 60.6447 70.0539 62.016C68.7432 65.4141 66.0464 68.111 62.6483 69.4216C61.2769 69.9549 59.205 70.5948 55.4106 70.762C51.2965 70.9453 50.0626 70.9906 39.6554 70.9906C29.2482 70.9906 27.9988 70.9453 23.8996 70.762C20.0903 70.5948 18.0332 69.9549 16.6619 69.4216C14.9709 68.7966 13.4317 67.8062 12.1823 66.511C10.8872 65.2462 9.89674 63.7225 9.27177 62.0315C8.73846 60.6601 8.09861 58.5876 7.93136 54.7938C7.74803 50.6797 7.7028 49.4452 7.7028 39.038C7.7028 28.6307 7.74803 27.3814 7.93136 23.2828C8.09861 19.4735 8.73846 17.4164 9.27177 16.045C9.89674 14.3535 10.8872 12.8148 12.1978 11.5649C13.462 10.2697 14.9858 9.27931 16.6774 8.65493C18.0487 8.12163 20.1212 7.48178 23.9151 7.31393C28.0292 7.1312 29.2636 7.08537 39.6703 7.08537C50.093 7.08537 51.3268 7.1312 55.426 7.31393C59.2354 7.48178 61.2924 8.12163 62.6638 8.65493C64.3548 9.27931 65.894 10.2697 67.1433 11.5649C68.4385 12.8297 69.4289 14.3535 70.0539 16.045C70.5872 17.4164 71.2271 19.4883 71.3949 23.2828C71.5776 27.3969 71.6235 28.6307 71.6235 39.038C71.6235 49.4452 71.5776 50.6642 71.3949 54.7783Z" fill="white"/>
<path d="M39.6399 18.9705C28.578 18.9705 19.6028 27.945 19.6028 39.0076C19.6028 50.0701 28.578 59.0447 39.6399 59.0447C50.7025 59.0447 59.6771 50.0701 59.6771 39.0076C59.6771 27.945 50.7025 18.9705 39.6399 18.9705ZM39.6399 52.0052C32.4635 52.0052 26.6424 46.1846 26.6424 39.0076C26.6424 31.8305 32.4635 26.01 39.6399 26.01C46.817 26.01 52.6375 31.8305 52.6375 39.0076C52.6375 46.1846 46.817 52.0052 39.6399 52.0052V52.0052Z" fill="white"/>
<path d="M65.1476 18.1782C65.1476 20.7614 63.0531 22.856 60.4693 22.856C57.8861 22.856 55.7915 20.7614 55.7915 18.1782C55.7915 15.5944 57.8861 13.5005 60.4693 13.5005C63.0531 13.5005 65.1476 15.5944 65.1476 18.1782V18.1782Z" fill="white"/>
</g>
<defs>
<clipPath id="clip0">
<rect width="78" height="78" fill="white" transform="translate(0.4953)"/>
</clipPath>
</defs>
</svg>
