<svg width="79" height="63" viewBox="0 0 79 63" fill="none" xmlns="http://www.w3.org/2000/svg">
<path fill-rule="evenodd" clip-rule="evenodd" d="M39.6244 14.6917C32.265 14.6917 22.241 15.1902 15.8756 15.5568C13.7616 15.6785 12.1244 17.0007 12.1244 18.6157V20.4406L37.6009 31.0139C38.8593 31.5361 40.3895 31.5361 41.6479 31.0139L67.1244 20.4406V18.6157C67.1244 17.0007 65.4871 15.6785 63.3732 15.5568C57.0077 15.1902 46.9838 14.6917 39.6244 14.6917ZM67.1244 24.7135L44.0761 34.279C41.3076 35.428 37.9412 35.428 35.1727 34.279L12.1244 24.7135V44.3843C12.1244 45.9993 13.7616 47.3215 15.8756 47.4432C22.2411 47.8098 32.265 48.3083 39.6244 48.3083C46.9838 48.3083 57.0077 47.8098 63.3732 47.4432C65.4871 47.3215 67.1244 45.9993 67.1244 44.3843V24.7135ZM15.4913 11.8326C21.8606 11.4659 32.0541 10.9565 39.6244 10.9565C47.1947 10.9565 57.3882 11.4659 63.7575 11.8326C68.5174 12.1067 72.1244 15.0803 72.1244 18.6157V44.3843C72.1244 47.9197 68.5174 50.8933 63.7575 51.1674C57.3882 51.5341 47.1947 52.0435 39.6244 52.0435C32.0541 52.0435 21.8606 51.5341 15.4913 51.1674C10.7313 50.8933 7.12442 47.9197 7.12442 44.3843V18.6157C7.12442 15.0803 10.7313 12.1067 15.4913 11.8326Z" fill="white"/>
</svg>
