<svg width="78" height="78" viewBox="0 0 78 78" fill="none" xmlns="http://www.w3.org/2000/svg">
<g clip-path="url(#clip0)">
<path d="M51.006 35.4949L33.7739 26.0662C32.7831 25.5241 31.6119 25.5443 30.6407 26.1198C29.6689 26.6958 29.0893 27.7135 29.0893 28.8429V47.5384C29.0893 48.6625 29.6654 49.6783 30.6306 50.255C31.1347 50.5561 31.6934 50.7072 32.2534 50.7072C32.7664 50.7072 33.2806 50.5805 33.7537 50.3258L50.9863 41.0596C52.0093 40.5091 52.6478 39.4457 52.6526 38.2835C52.6568 37.1213 52.026 36.0531 51.006 35.4949V35.4949ZM33.6602 45.1866V31.2138L46.5392 38.2609L33.6602 45.1866Z" fill="white"/>
<path d="M77.4263 23.3889L77.4228 23.3532C77.3567 22.7254 76.6991 17.1411 73.9843 14.3007C70.8464 10.9598 67.2889 10.554 65.578 10.3594C65.4364 10.3433 65.3067 10.3284 65.1906 10.313L65.0544 10.2987C54.7426 9.54886 39.1696 9.4465 39.0137 9.44591L39 9.44531L38.9863 9.44591C38.8304 9.4465 23.2574 9.54886 12.8528 10.2987L12.7153 10.313C12.6047 10.3278 12.4827 10.3415 12.35 10.357C10.6587 10.5522 7.13933 10.9586 3.99248 14.4203C1.4068 17.2303 0.659363 22.6951 0.582596 23.3092L0.573669 23.3889C0.550461 23.6502 0 29.8695 0 36.1132V41.9499C0 48.1936 0.550461 54.4129 0.573669 54.6747L0.577835 54.714C0.64389 55.3317 1.30087 60.8137 4.00319 63.6553C6.95366 66.8843 10.6843 67.3115 12.6909 67.5412C13.0081 67.5775 13.2813 67.6085 13.4675 67.6412L13.6479 67.6662C19.6018 68.2327 38.2692 68.5118 39.0607 68.5231L39.0845 68.5237L39.1083 68.5231C39.2642 68.5226 54.8366 68.4202 65.1484 67.6704L65.2847 67.6561C65.415 67.6388 65.5614 67.6234 65.722 67.6067C67.4038 67.4282 70.9041 67.0574 74.0075 63.6428C76.5932 60.8322 77.3412 55.3674 77.4174 54.7539L77.4263 54.6741C77.4495 54.4123 78.0006 48.1936 78.0006 41.9499V36.1132C78 29.8695 77.4495 23.6508 77.4263 23.3889V23.3889ZM73.4291 41.9499C73.4291 47.7288 72.9245 53.6803 72.8768 54.2266C72.6828 55.7316 71.8943 59.1891 70.6345 60.5584C68.6922 62.6954 66.6968 62.9073 65.24 63.0614C65.0639 63.0798 64.9008 63.0977 64.7532 63.1161C54.7795 63.8374 39.7944 63.9481 39.1041 63.9522C38.3299 63.9409 19.9356 63.6595 14.1632 63.1233C13.8674 63.0751 13.5479 63.0382 13.2111 63.0001C11.5025 62.8043 9.16383 62.5365 7.36546 60.5584L7.32321 60.5132C6.08542 59.2236 5.31953 55.9905 5.12494 54.2445C5.08864 53.8315 4.57091 47.8098 4.57091 41.9499V36.1132C4.57091 30.3408 5.07436 24.3958 5.12315 23.8382C5.35464 22.0654 6.15802 18.8174 7.36546 17.5047C9.36736 15.3028 11.4781 15.0588 12.8742 14.8976C13.0075 14.8821 13.1319 14.8678 13.2468 14.8529C23.3657 14.1281 38.4585 14.0204 39 14.0162C39.5415 14.0198 54.6289 14.1281 64.658 14.8529C64.7812 14.8684 64.9157 14.8839 65.0603 14.9005C66.4963 15.0642 68.6666 15.3117 70.6583 17.4362L70.6768 17.4559C71.9146 18.7454 72.6805 22.0351 72.8751 23.8162C72.9096 24.206 73.4291 30.2408 73.4291 36.1132V41.9499Z" fill="white"/>
</g>
<defs>
<clipPath id="clip0">
<rect width="78.0003" height="78" fill="white"/>
</clipPath>
</defs>
</svg>
