<svg width="817" height="777" viewBox="0 0 817 777" fill="none" xmlns="http://www.w3.org/2000/svg">
<g clip-path="url(#clip0)">
<path d="M245.002 275.998C176.13 275.998 113.916 304.434 69.405 350.184L16.871 610.513C52.62 701.55 141.282 766.003 245.002 766.003C380.313 766.003 490.004 656.312 490.004 521.001C490.004 385.69 380.313 275.998 245.002 275.998V275.998Z" fill="#2A428C"/>
<path d="M206.26 715.03C200.554 704.852 199.833 694.348 201.903 684.72L180.181 681.714L159.742 684.72C164.825 695.25 168.652 706.319 172.305 715.03C181.223 736.294 218.949 737.666 206.26 715.03Z" fill="#E80054"/>
<path d="M403.278 591.165L208.843 585.152L9.90302 590.119C12.106 597.623 14.654 604.979 17.537 612.166C42.984 616.979 56.534 609.891 73.872 627.229C78.442 631.799 82.199 635.265 85.452 637.943L184.292 642.954L295.387 637.943C297.091 625.135 317.362 626.715 350.307 626.715C367.411 626.715 372.456 631.624 374.921 637.943L398.295 641.952L416.5 637.943C413.632 634.026 410.415 630.231 406.898 626.715C396.475 616.292 398.306 603.306 403.278 591.165V591.165Z" fill="#FF4155"/>
<path d="M161.041 606C151.353 600.181 144.603 593.562 139.927 586.873L9.90302 590.119C12.106 597.623 14.654 604.979 17.537 612.166C42.984 616.979 56.534 609.891 73.872 627.229C78.442 631.799 82.199 635.265 85.452 637.943L184.292 642.954L187.691 642.801C183.055 630.612 178.278 616.353 161.041 606V606Z" fill="#E80054"/>
<path d="M452.17 522.28C441.348 511.458 443.663 506.952 446.73 497.611L295.951 493.603L162.016 497.611V543.359H154V547.219L257.997 548.397L443.961 544.388C454.413 538.404 461.819 531.929 452.17 522.28Z" fill="#FF4155"/>
<path d="M488.182 410.471C486.177 408.466 484.909 406.309 484.233 404.058L433.368 401.052L388.843 404.058C385.302 406.599 383.427 410.434 384.776 418.359C387.809 436.178 364.303 447.848 345.685 450.834L410.82 453.84L450.157 450.834C457.036 423.053 502.005 424.294 488.182 410.471V410.471Z" fill="#FF4155"/>
<path d="M322.184 412.872C327.917 411.054 331.881 407.868 333.894 404.058L240.461 401.052L162.017 404.058V450.835L239.961 456.848L329.872 450.835C329.588 450.761 329.311 450.684 329.045 450.599C313.953 445.797 308.122 417.33 322.184 412.872V412.872Z" fill="#FF4155"/>
<path d="M492.298 332.959C484.067 316.496 463.488 291.459 463.488 333.988C463.488 340.947 462.584 346.134 461.027 350.078L481.804 352.082L506.947 350.078C502.563 346.036 496.312 340.987 492.298 332.959Z" fill="#FF4155"/>
<path d="M295.775 644.206C295.27 641.806 295.149 639.735 295.388 637.942H85.452C100.749 650.535 104.629 645.297 126.69 651.237C142.483 655.489 152.417 669.544 159.742 684.719H201.902C204.435 672.933 211.155 662.461 218.092 655.524C230.696 642.92 299.891 663.756 295.775 644.206V644.206Z" fill="#E9EFFF"/>
<path d="M126.69 651.237C142.483 655.489 152.417 669.544 159.742 684.719H201.902C203.328 678.083 206.082 671.863 209.455 666.456C194.14 662.9 190.942 651.128 185.844 637.942H85.452C100.749 650.535 104.629 645.297 126.69 651.237V651.237Z" fill="#BEC8F7"/>
<path d="M443.962 544.389H163.045H1.117C2.642 560.487 5.726 576.128 10.214 591.166H403.277C407.753 580.235 414.776 569.991 417.701 562.922C420.746 555.565 433.795 550.21 443.962 544.389Z" fill="#E9EFFF"/>
<path d="M1.117 544.389C2.642 560.487 5.726 576.128 10.214 591.166H143.233C124.503 569.042 131 544.389 131 544.389H1.117Z" fill="#BEC8F7"/>
<path d="M388.892 660.669C410.499 670.958 416.673 695.652 426.962 685.363C435.424 676.901 429.786 656.087 416.5 637.943H374.921C377.868 645.497 377.126 655.066 388.892 660.669Z" fill="#E9EFFF"/>
<path d="M161.041 404.058H333.894C336.818 398.522 335.621 391.669 329.73 385.777C319.784 375.831 298.177 395.723 283.772 377.203C269.367 358.682 245.874 367.085 239.186 360.397C232.498 353.709 211.748 351.823 211.748 351.823H163.046L161.041 404.058Z" fill="#E9EFFF"/>
<path d="M345.685 450.835C339.483 451.83 333.826 451.861 329.871 450.835H161.041V497.612H446.73C449.058 490.524 451.817 480.653 449.598 463.118C449.01 458.476 449.271 454.417 450.158 450.835H345.685Z" fill="#E9EFFF"/>
<path d="M418.216 380.633C410.377 399.078 396.106 398.846 388.844 404.058H484.234C479.65 388.788 502.467 369.092 509.79 361.769C514.095 357.464 511.553 354.326 506.947 350.078H461.028C453.072 370.235 427.969 357.684 418.216 380.633V380.633Z" fill="#E9EFFF"/>
<path d="M132.864 351.823C111.037 351.823 90.114 350.68 70.67 348.873C66.655 352.939 62.784 357.147 59.059 361.485L44.851 379.697C39.373 387.441 34.339 395.519 29.773 403.89L19.974 424.008C15.917 433.405 12.428 443.103 9.558 453.065L3.971 476.895C1.37 491.204 0 505.941 0 521C0 528.89 0.388 536.689 1.117 544.389H163.045V351.823H132.864Z" fill="#4383E8"/>
<path d="M128.114 522.698C130.728 513.063 126.483 496.836 126.483 496.836C112.967 493.339 117.761 478.57 117.761 478.57C115.023 470.641 119.793 457.949 119.793 457.949C112.253 446.399 120.117 433.259 120.117 433.259C121.984 425.893 117.286 412.38 117.286 412.38C106.619 401.713 114.046 388.111 114.046 388.111C111.967 379.597 117.559 366.811 117.559 366.811C113.619 357.788 122.402 351.824 122.402 351.824L122.262 351.724C104.257 351.423 86.941 350.386 70.67 348.874C66.655 352.94 62.784 357.148 59.059 361.486L44.851 379.698C39.373 387.442 34.339 395.52 29.773 403.891L19.974 424.009C15.917 433.406 12.428 443.104 9.558 453.066L3.971 476.896C1.37 491.204 0 505.941 0 521C0 528.89 0.388 536.689 1.117 544.389H131C120.333 535.777 128.114 522.698 128.114 522.698V522.698Z" fill="#3067D0"/>
<path d="M42.858 503.519L38.469 502.881C37.238 502.702 36.174 501.929 35.623 500.814L33.66 496.836C32.274 494.027 28.268 494.027 26.882 496.836L24.919 500.814C24.369 501.929 23.304 502.702 22.073 502.881L17.684 503.519C14.584 503.969 13.347 507.779 15.59 509.965L18.766 513.061C19.657 513.929 20.063 515.18 19.853 516.406L19.103 520.777C18.573 523.864 21.814 526.219 24.587 524.761L28.513 522.697C29.614 522.118 30.93 522.118 32.03 522.697L35.956 524.761C38.729 526.218 41.97 523.864 41.44 520.777L40.69 516.406C40.48 515.18 40.886 513.929 41.777 513.061L44.953 509.965C47.196 507.779 45.958 503.969 42.858 503.519V503.519Z" fill="#E9EFFF"/>
<path d="M92.659 503.519L88.27 502.881C87.039 502.702 85.975 501.929 85.424 500.814L83.461 496.836C82.075 494.027 78.069 494.027 76.683 496.836L74.72 500.814C74.17 501.929 73.105 502.702 71.874 502.881L67.485 503.519C64.385 503.969 63.147 507.779 65.391 509.965L68.567 513.061C69.458 513.929 69.864 515.18 69.654 516.406L68.904 520.777C68.374 523.864 71.615 526.219 74.388 524.761L78.314 522.697C79.415 522.118 80.73 522.118 81.832 522.697L85.758 524.761C88.531 526.218 91.771 523.864 91.242 520.777L90.492 516.406C90.282 515.18 90.688 513.929 91.579 513.061L94.755 509.965C96.997 507.779 95.759 503.969 92.659 503.519V503.519Z" fill="#E9EFFF"/>
<path d="M142.46 503.519L138.071 502.881C136.84 502.702 135.776 501.929 135.225 500.814L133.262 496.836C131.875 494.027 127.87 494.027 126.483 496.836L124.52 500.814C123.97 501.929 122.905 502.702 121.674 502.881L117.285 503.519C114.185 503.969 112.948 507.779 115.191 509.965L118.367 513.061C119.258 513.929 119.664 515.18 119.454 516.406L118.704 520.777C118.175 523.864 121.415 526.219 124.188 524.761L128.114 522.697C129.215 522.118 130.53 522.118 131.631 522.697L135.557 524.761C138.33 526.218 141.57 523.864 141.041 520.777L140.291 516.406C140.081 515.18 140.487 513.929 141.378 513.061L144.554 509.965C146.798 507.779 145.56 503.969 142.46 503.519V503.519Z" fill="#E9EFFF"/>
<path d="M142.46 412.38L138.071 411.742C136.84 411.563 135.776 410.79 135.225 409.675L133.262 405.697C131.875 402.888 127.87 402.888 126.483 405.697L124.52 409.675C123.97 410.79 122.905 411.563 121.674 411.742L117.285 412.38C114.185 412.83 112.948 416.64 115.191 418.826L118.367 421.922C119.258 422.79 119.664 424.041 119.454 425.267L118.704 429.638C118.175 432.725 121.415 435.08 124.188 433.622L128.114 431.558C129.215 430.979 130.53 430.979 131.631 431.558L135.557 433.622C138.33 435.079 141.57 432.725 141.041 429.638L140.291 425.267C140.081 424.041 140.487 422.79 141.378 421.922L144.554 418.826C146.798 416.64 145.56 412.83 142.46 412.38V412.38Z" fill="#E9EFFF"/>
<path d="M67.759 457.95L63.37 457.312C62.139 457.133 61.075 456.36 60.524 455.245L58.561 451.267C57.174 448.458 53.169 448.458 51.783 451.267L49.82 455.245C49.269 456.36 48.205 457.133 46.974 457.312L42.585 457.95C39.485 458.4 38.247 462.21 40.49 464.396L43.666 467.492C44.557 468.36 44.963 469.611 44.753 470.837L44.003 475.208C43.473 478.295 46.714 480.65 49.487 479.192L53.413 477.128C54.514 476.549 55.829 476.549 56.93 477.128L60.856 479.192C63.629 480.649 66.869 478.295 66.34 475.208L65.59 470.837C65.38 469.611 65.786 468.36 66.677 467.492L69.853 464.396C72.096 462.21 70.858 458.4 67.759 457.95V457.95Z" fill="#E9EFFF"/>
<path d="M119.793 457.95L116.259 457.312C115.268 457.133 114.411 456.36 113.968 455.245L112.388 451.267C111.272 448.458 108.047 448.458 106.93 451.267L105.35 455.245C104.907 456.36 104.05 457.133 103.059 457.312L99.525 457.95C97.029 458.4 96.032 462.21 97.839 464.396L100.396 467.492C101.113 468.36 101.44 469.611 101.271 470.837L100.667 475.208C100.241 478.295 102.85 480.65 105.083 479.192L108.244 477.128C109.13 476.549 110.19 476.549 111.076 477.128L114.237 479.192C116.469 480.649 119.079 478.295 118.653 475.208L118.049 470.837C117.88 469.611 118.207 468.36 118.924 467.492L121.481 464.396C123.286 462.21 122.289 458.4 119.793 457.95V457.95Z" fill="#E9EFFF"/>
<path d="M7.13 477.129L11.056 479.193C13.829 480.65 17.069 478.296 16.54 475.209L15.79 470.838C15.58 469.612 15.986 468.361 16.877 467.493L20.053 464.397C22.296 462.211 21.058 458.401 17.959 457.951L13.57 457.313C12.339 457.134 11.275 456.361 10.724 455.246L9.588 452.945C7.318 460.81 5.429 468.836 3.948 477.004C4.975 476.581 6.136 476.606 7.13 477.129V477.129Z" fill="#E9EFFF"/>
<path d="M142.46 412.38L138.071 411.742C136.84 411.563 135.776 410.79 135.225 409.675L133.262 405.697C131.875 402.888 127.87 402.888 126.483 405.697L124.52 409.675C123.97 410.79 122.905 411.563 121.674 411.742L117.285 412.38C114.185 412.83 112.948 416.64 115.191 418.826L118.367 421.922C119.258 422.79 119.664 424.041 119.454 425.267L118.704 429.638C118.175 432.725 121.415 435.08 124.188 433.622L128.114 431.558C129.215 430.979 130.53 430.979 131.631 431.558L135.557 433.622C138.33 435.079 141.57 432.725 141.041 429.638L140.291 425.267C140.081 424.041 140.487 422.79 141.378 421.922L144.554 418.826C146.798 416.64 145.56 412.83 142.46 412.38V412.38Z" fill="#E9EFFF"/>
<path d="M19.853 425.267L19.103 429.638C18.574 432.725 21.814 435.08 24.587 433.622L28.513 431.558C29.614 430.979 30.93 430.979 32.031 431.558L35.956 433.622C38.729 435.079 41.97 432.725 41.44 429.638L40.69 425.267C40.48 424.041 40.886 422.79 41.777 421.922L44.953 418.826C47.196 416.64 45.958 412.83 42.858 412.38L38.469 411.742C37.238 411.563 36.174 410.79 35.623 409.675L33.66 405.697C32.904 404.166 31.371 403.476 29.907 403.614C26.253 410.295 22.908 417.167 19.877 424.207C19.917 424.556 19.914 424.912 19.853 425.267V425.267Z" fill="#E9EFFF"/>
<path d="M92.659 412.38L88.27 411.742C87.039 411.563 85.975 410.79 85.424 409.675L83.461 405.697C82.075 402.888 78.069 402.888 76.683 405.697L74.72 409.675C74.17 410.79 73.105 411.563 71.874 411.742L67.485 412.38C64.385 412.83 63.147 416.64 65.391 418.826L68.567 421.922C69.458 422.79 69.864 424.041 69.654 425.267L68.904 429.638C68.374 432.725 71.615 435.08 74.388 433.622L78.314 431.558C79.415 430.979 80.73 430.979 81.832 431.558L85.758 433.622C88.531 435.079 91.771 432.725 91.242 429.638L90.492 425.267C90.282 424.041 90.688 422.79 91.579 421.922L94.755 418.826C96.997 416.64 95.759 412.83 92.659 412.38V412.38Z" fill="#E9EFFF"/>
<path d="M44.004 384.069C43.474 387.157 46.715 389.511 49.488 388.053L53.414 385.989C54.515 385.41 55.83 385.41 56.931 385.989L60.857 388.053C63.63 389.51 66.871 387.156 66.341 384.069L65.591 379.698C65.381 378.472 65.787 377.221 66.678 376.353L69.854 373.257C72.097 371.071 70.859 367.261 67.76 366.811L63.371 366.173C62.14 365.994 61.076 365.221 60.525 364.106L59.166 361.351C54.068 367.28 49.248 373.455 44.728 379.858L44.004 384.069Z" fill="#E9EFFF"/>
<path d="M117.559 366.81L113.17 366.172C111.939 365.993 110.875 365.22 110.324 364.105L108.361 360.127C106.975 357.318 102.969 357.318 101.583 360.127L99.62 364.105C99.07 365.22 98.005 365.993 96.774 366.172L92.385 366.81C89.285 367.26 88.047 371.07 90.291 373.256L93.467 376.352C94.358 377.22 94.764 378.471 94.554 379.697L93.804 384.068C93.275 387.156 96.515 389.51 99.288 388.052L103.214 385.988C104.315 385.41 105.63 385.41 106.731 385.988L110.657 388.052C113.43 389.509 116.67 387.155 116.141 384.068L115.391 379.697C115.181 378.471 115.587 377.22 116.478 376.352L119.654 373.256C121.897 371.07 120.659 367.26 117.559 366.81V366.81Z" fill="#E9EFFF"/>
</g>
<g clip-path="url(#clip1)">
<path d="M578.74 134.072L599.374 175.881L645.512 182.585C650.763 183.348 652.859 189.8 649.06 193.504L615.673 226.047L623.555 271.998C624.452 277.227 618.963 281.215 614.267 278.746L573 257.051L531.732 278.746C527.037 281.215 521.548 277.227 522.445 271.998L530.326 226.047L496.94 193.503C493.141 189.8 495.237 183.348 500.488 182.585L546.626 175.881L567.26 134.072C569.608 129.315 576.392 129.315 578.74 134.072Z" fill="url(#paint0_linear)"/>
<path d="M599.373 175.881L578.74 134.072C577.566 131.694 575.283 130.504 573 130.504V209.658L599.373 175.881Z" fill="url(#paint1_linear)"/>
<path d="M615.673 226.046L649.059 193.503C650.934 191.676 651.371 189.181 650.704 187.029L573 209.658L615.673 226.046Z" fill="url(#paint2_linear)"/>
<path d="M621.027 278.244L573 209.658V257.051L614.267 278.746C616.623 279.985 619.179 279.598 621.027 278.244Z" fill="url(#paint3_linear)"/>
<path d="M573 209.658L530.326 226.047L522.445 271.998C521.998 274.603 523.137 276.9 524.972 278.244L573 209.658Z" fill="url(#paint4_linear)"/>
<path d="M495.295 187.03L573 209.658L546.626 175.881L500.488 182.585C497.827 182.971 495.979 184.819 495.295 187.03Z" fill="url(#paint5_linear)"/>
<path d="M530.326 226.046L496.94 193.503C495.066 191.676 494.629 189.181 495.295 187.03L573 209.658L530.326 226.046Z" fill="url(#paint6_linear)"/>
</g>
<g clip-path="url(#clip2)">
<path d="M744.74 353.072L765.374 394.881L811.512 401.585C816.763 402.348 818.859 408.8 815.06 412.504L781.673 445.047L789.555 490.998C790.452 496.227 784.963 500.215 780.267 497.746L739 476.051L697.732 497.746C693.037 500.215 687.548 496.227 688.445 490.998L696.326 445.047L662.94 412.503C659.141 408.8 661.237 402.348 666.488 401.585L712.626 394.881L733.26 353.072C735.608 348.315 742.392 348.315 744.74 353.072Z" fill="url(#paint7_linear)"/>
<path d="M765.373 394.881L744.74 353.072C743.566 350.694 741.283 349.504 739 349.504V428.658L765.373 394.881Z" fill="url(#paint8_linear)"/>
<path d="M781.673 445.046L815.059 412.503C816.934 410.676 817.371 408.181 816.704 406.029L739 428.658L781.673 445.046Z" fill="url(#paint9_linear)"/>
<path d="M787.027 497.244L739 428.658V476.051L780.267 497.746C782.623 498.985 785.179 498.598 787.027 497.244Z" fill="url(#paint10_linear)"/>
<path d="M739 428.658L696.326 445.047L688.445 490.998C687.998 493.603 689.137 495.9 690.972 497.244L739 428.658Z" fill="url(#paint11_linear)"/>
<path d="M661.295 406.03L739 428.658L712.626 394.881L666.488 401.585C663.827 401.971 661.979 403.819 661.295 406.03Z" fill="url(#paint12_linear)"/>
<path d="M696.326 445.046L662.94 412.503C661.066 410.676 660.629 408.181 661.295 406.03L739 428.658L696.326 445.046Z" fill="url(#paint13_linear)"/>
</g>
<g clip-path="url(#clip3)">
<path d="M339.74 7.07238L360.374 48.8808L406.512 55.5852C411.763 56.3478 413.859 62.8001 410.06 66.5036L376.673 99.0465L384.555 144.998C385.452 150.227 379.963 154.215 375.267 151.746L334 130.051L292.732 151.746C288.037 154.215 282.548 150.227 283.445 144.998L291.326 99.0465L257.94 66.5033C254.141 62.7998 256.237 56.3481 261.488 55.5849L307.626 48.8805L328.26 7.07238C330.608 2.3147 337.392 2.3147 339.74 7.07238Z" fill="url(#paint14_linear)"/>
<path d="M360.373 48.8808L339.74 7.07239C338.566 4.69371 336.283 3.50421 334 3.50421V82.6584L360.373 48.8808Z" fill="url(#paint15_linear)"/>
<path d="M376.673 99.0465L410.059 66.5029C411.934 64.676 412.371 62.181 411.704 60.0293L334 82.658L376.673 99.0465Z" fill="url(#paint16_linear)"/>
<path d="M382.027 151.244L334 82.6581V130.051L375.267 151.746C377.623 152.985 380.179 152.598 382.027 151.244Z" fill="url(#paint17_linear)"/>
<path d="M334 82.6581L291.326 99.0465L283.445 144.998C282.998 147.603 284.137 149.9 285.972 151.244L334 82.6581Z" fill="url(#paint18_linear)"/>
<path d="M256.295 60.0296L334 82.6581L307.626 48.8805L261.488 55.5851C258.827 55.9715 256.979 57.8194 256.295 60.0296Z" fill="url(#paint19_linear)"/>
<path d="M291.326 99.0465L257.94 66.5033C256.066 64.6764 255.629 62.1813 256.295 60.0296L334 82.658L291.326 99.0465Z" fill="url(#paint20_linear)"/>
</g>
<g clip-path="url(#clip4)">
<path d="M656.74 628.072L677.374 669.881L723.512 676.585C728.763 677.348 730.859 683.8 727.06 687.504L693.673 720.047L701.555 765.998C702.452 771.227 696.963 775.215 692.267 772.746L651 751.051L609.732 772.746C605.037 775.215 599.548 771.227 600.445 765.998L608.326 720.047L574.94 687.503C571.141 683.8 573.237 677.348 578.488 676.585L624.626 669.881L645.26 628.072C647.608 623.315 654.392 623.315 656.74 628.072Z" fill="url(#paint21_linear)"/>
<path d="M677.373 669.881L656.74 628.072C655.566 625.694 653.283 624.504 651 624.504V703.658L677.373 669.881Z" fill="url(#paint22_linear)"/>
<path d="M693.673 720.046L727.059 687.503C728.934 685.676 729.371 683.181 728.704 681.029L651 703.658L693.673 720.046Z" fill="url(#paint23_linear)"/>
<path d="M699.027 772.244L651 703.658V751.051L692.267 772.746C694.623 773.985 697.179 773.598 699.027 772.244Z" fill="url(#paint24_linear)"/>
<path d="M651 703.658L608.326 720.047L600.445 765.998C599.998 768.603 601.137 770.9 602.972 772.244L651 703.658Z" fill="url(#paint25_linear)"/>
<path d="M573.295 681.03L651 703.658L624.626 669.881L578.488 676.585C575.827 676.971 573.979 678.819 573.295 681.03Z" fill="url(#paint26_linear)"/>
<path d="M608.326 720.046L574.94 687.503C573.066 685.676 572.629 683.181 573.295 681.03L651 703.658L608.326 720.046Z" fill="url(#paint27_linear)"/>
</g>
<defs>
<linearGradient id="paint0_linear" x1="573.002" y1="147.88" x2="573.002" y2="320.008" gradientUnits="userSpaceOnUse">
<stop stop-color="#FFCF95"/>
<stop offset="0.427" stop-color="#FFC954"/>
<stop offset="1" stop-color="#FFC200"/>
</linearGradient>
<linearGradient id="paint1_linear" x1="613.433" y1="170.077" x2="561.399" y2="170.077" gradientUnits="userSpaceOnUse">
<stop stop-color="#FFC200" stop-opacity="0"/>
<stop offset="0.203" stop-color="#FFBB00" stop-opacity="0.203"/>
<stop offset="0.499" stop-color="#FFA700" stop-opacity="0.499"/>
<stop offset="0.852" stop-color="#FF8800" stop-opacity="0.852"/>
<stop offset="1" stop-color="#FF7800"/>
</linearGradient>
<linearGradient id="paint2_linear" x1="622.322" y1="249.8" x2="608.542" y2="181.938" gradientUnits="userSpaceOnUse">
<stop stop-color="#FFC200" stop-opacity="0"/>
<stop offset="0.203" stop-color="#FFBB00" stop-opacity="0.203"/>
<stop offset="0.499" stop-color="#FFA700" stop-opacity="0.499"/>
<stop offset="0.852" stop-color="#FF8800" stop-opacity="0.852"/>
<stop offset="1" stop-color="#FF7800"/>
</linearGradient>
<linearGradient id="paint3_linear" x1="555.504" y1="285.463" x2="609.475" y2="231.492" gradientUnits="userSpaceOnUse">
<stop stop-color="#FFC200" stop-opacity="0"/>
<stop offset="0.203" stop-color="#FFBB00" stop-opacity="0.203"/>
<stop offset="0.499" stop-color="#FFA700" stop-opacity="0.499"/>
<stop offset="0.852" stop-color="#FF8800" stop-opacity="0.852"/>
<stop offset="1" stop-color="#FF7800"/>
</linearGradient>
<linearGradient id="paint4_linear" x1="517.016" y1="217.211" x2="556.797" y2="250.492" gradientUnits="userSpaceOnUse">
<stop stop-color="#FFC200" stop-opacity="0"/>
<stop offset="0.203" stop-color="#FFBB00" stop-opacity="0.203"/>
<stop offset="0.499" stop-color="#FFA700" stop-opacity="0.499"/>
<stop offset="0.852" stop-color="#FF8800" stop-opacity="0.852"/>
<stop offset="1" stop-color="#FF7800"/>
</linearGradient>
<linearGradient id="paint5_linear" x1="546.838" y1="162.313" x2="530.717" y2="208.074" gradientUnits="userSpaceOnUse">
<stop stop-color="#FFC200" stop-opacity="0"/>
<stop offset="0.203" stop-color="#FFBB00" stop-opacity="0.203"/>
<stop offset="0.499" stop-color="#FFA700" stop-opacity="0.499"/>
<stop offset="0.852" stop-color="#FF8800" stop-opacity="0.852"/>
<stop offset="1" stop-color="#FF7800"/>
</linearGradient>
<linearGradient id="paint6_linear" x1="607.519" y1="167.092" x2="489.086" y2="217.533" gradientUnits="userSpaceOnUse">
<stop stop-color="#FFC200" stop-opacity="0"/>
<stop offset="0.203" stop-color="#FFBB00" stop-opacity="0.203"/>
<stop offset="0.499" stop-color="#FFA700" stop-opacity="0.499"/>
<stop offset="0.852" stop-color="#FF8800" stop-opacity="0.852"/>
<stop offset="1" stop-color="#FF7800"/>
</linearGradient>
<linearGradient id="paint7_linear" x1="739.002" y1="366.88" x2="739.002" y2="539.008" gradientUnits="userSpaceOnUse">
<stop stop-color="#FFCF95"/>
<stop offset="0.427" stop-color="#FFC954"/>
<stop offset="1" stop-color="#FFC200"/>
</linearGradient>
<linearGradient id="paint8_linear" x1="779.433" y1="389.077" x2="727.399" y2="389.077" gradientUnits="userSpaceOnUse">
<stop stop-color="#FFC200" stop-opacity="0"/>
<stop offset="0.203" stop-color="#FFBB00" stop-opacity="0.203"/>
<stop offset="0.499" stop-color="#FFA700" stop-opacity="0.499"/>
<stop offset="0.852" stop-color="#FF8800" stop-opacity="0.852"/>
<stop offset="1" stop-color="#FF7800"/>
</linearGradient>
<linearGradient id="paint9_linear" x1="788.322" y1="468.8" x2="774.542" y2="400.938" gradientUnits="userSpaceOnUse">
<stop stop-color="#FFC200" stop-opacity="0"/>
<stop offset="0.203" stop-color="#FFBB00" stop-opacity="0.203"/>
<stop offset="0.499" stop-color="#FFA700" stop-opacity="0.499"/>
<stop offset="0.852" stop-color="#FF8800" stop-opacity="0.852"/>
<stop offset="1" stop-color="#FF7800"/>
</linearGradient>
<linearGradient id="paint10_linear" x1="721.504" y1="504.463" x2="775.475" y2="450.492" gradientUnits="userSpaceOnUse">
<stop stop-color="#FFC200" stop-opacity="0"/>
<stop offset="0.203" stop-color="#FFBB00" stop-opacity="0.203"/>
<stop offset="0.499" stop-color="#FFA700" stop-opacity="0.499"/>
<stop offset="0.852" stop-color="#FF8800" stop-opacity="0.852"/>
<stop offset="1" stop-color="#FF7800"/>
</linearGradient>
<linearGradient id="paint11_linear" x1="683.016" y1="436.211" x2="722.797" y2="469.492" gradientUnits="userSpaceOnUse">
<stop stop-color="#FFC200" stop-opacity="0"/>
<stop offset="0.203" stop-color="#FFBB00" stop-opacity="0.203"/>
<stop offset="0.499" stop-color="#FFA700" stop-opacity="0.499"/>
<stop offset="0.852" stop-color="#FF8800" stop-opacity="0.852"/>
<stop offset="1" stop-color="#FF7800"/>
</linearGradient>
<linearGradient id="paint12_linear" x1="712.838" y1="381.313" x2="696.717" y2="427.074" gradientUnits="userSpaceOnUse">
<stop stop-color="#FFC200" stop-opacity="0"/>
<stop offset="0.203" stop-color="#FFBB00" stop-opacity="0.203"/>
<stop offset="0.499" stop-color="#FFA700" stop-opacity="0.499"/>
<stop offset="0.852" stop-color="#FF8800" stop-opacity="0.852"/>
<stop offset="1" stop-color="#FF7800"/>
</linearGradient>
<linearGradient id="paint13_linear" x1="773.519" y1="386.092" x2="655.086" y2="436.533" gradientUnits="userSpaceOnUse">
<stop stop-color="#FFC200" stop-opacity="0"/>
<stop offset="0.203" stop-color="#FFBB00" stop-opacity="0.203"/>
<stop offset="0.499" stop-color="#FFA700" stop-opacity="0.499"/>
<stop offset="0.852" stop-color="#FF8800" stop-opacity="0.852"/>
<stop offset="1" stop-color="#FF7800"/>
</linearGradient>
<linearGradient id="paint14_linear" x1="334.002" y1="20.88" x2="334.002" y2="193.008" gradientUnits="userSpaceOnUse">
<stop stop-color="#FFCF95"/>
<stop offset="0.427" stop-color="#FFC954"/>
<stop offset="1" stop-color="#FFC200"/>
</linearGradient>
<linearGradient id="paint15_linear" x1="374.433" y1="43.0772" x2="322.399" y2="43.0772" gradientUnits="userSpaceOnUse">
<stop stop-color="#FFC200" stop-opacity="0"/>
<stop offset="0.203" stop-color="#FFBB00" stop-opacity="0.203"/>
<stop offset="0.499" stop-color="#FFA700" stop-opacity="0.499"/>
<stop offset="0.852" stop-color="#FF8800" stop-opacity="0.852"/>
<stop offset="1" stop-color="#FF7800"/>
</linearGradient>
<linearGradient id="paint16_linear" x1="383.322" y1="122.8" x2="369.542" y2="54.9377" gradientUnits="userSpaceOnUse">
<stop stop-color="#FFC200" stop-opacity="0"/>
<stop offset="0.203" stop-color="#FFBB00" stop-opacity="0.203"/>
<stop offset="0.499" stop-color="#FFA700" stop-opacity="0.499"/>
<stop offset="0.852" stop-color="#FF8800" stop-opacity="0.852"/>
<stop offset="1" stop-color="#FF7800"/>
</linearGradient>
<linearGradient id="paint17_linear" x1="316.504" y1="158.463" x2="370.475" y2="104.492" gradientUnits="userSpaceOnUse">
<stop stop-color="#FFC200" stop-opacity="0"/>
<stop offset="0.203" stop-color="#FFBB00" stop-opacity="0.203"/>
<stop offset="0.499" stop-color="#FFA700" stop-opacity="0.499"/>
<stop offset="0.852" stop-color="#FF8800" stop-opacity="0.852"/>
<stop offset="1" stop-color="#FF7800"/>
</linearGradient>
<linearGradient id="paint18_linear" x1="278.016" y1="90.2111" x2="317.797" y2="123.492" gradientUnits="userSpaceOnUse">
<stop stop-color="#FFC200" stop-opacity="0"/>
<stop offset="0.203" stop-color="#FFBB00" stop-opacity="0.203"/>
<stop offset="0.499" stop-color="#FFA700" stop-opacity="0.499"/>
<stop offset="0.852" stop-color="#FF8800" stop-opacity="0.852"/>
<stop offset="1" stop-color="#FF7800"/>
</linearGradient>
<linearGradient id="paint19_linear" x1="307.838" y1="35.3132" x2="291.717" y2="81.0744" gradientUnits="userSpaceOnUse">
<stop stop-color="#FFC200" stop-opacity="0"/>
<stop offset="0.203" stop-color="#FFBB00" stop-opacity="0.203"/>
<stop offset="0.499" stop-color="#FFA700" stop-opacity="0.499"/>
<stop offset="0.852" stop-color="#FF8800" stop-opacity="0.852"/>
<stop offset="1" stop-color="#FF7800"/>
</linearGradient>
<linearGradient id="paint20_linear" x1="368.519" y1="40.092" x2="250.086" y2="90.5334" gradientUnits="userSpaceOnUse">
<stop stop-color="#FFC200" stop-opacity="0"/>
<stop offset="0.203" stop-color="#FFBB00" stop-opacity="0.203"/>
<stop offset="0.499" stop-color="#FFA700" stop-opacity="0.499"/>
<stop offset="0.852" stop-color="#FF8800" stop-opacity="0.852"/>
<stop offset="1" stop-color="#FF7800"/>
</linearGradient>
<linearGradient id="paint21_linear" x1="651.002" y1="641.88" x2="651.002" y2="814.008" gradientUnits="userSpaceOnUse">
<stop stop-color="#FFCF95"/>
<stop offset="0.427" stop-color="#FFC954"/>
<stop offset="1" stop-color="#FFC200"/>
</linearGradient>
<linearGradient id="paint22_linear" x1="691.433" y1="664.077" x2="639.399" y2="664.077" gradientUnits="userSpaceOnUse">
<stop stop-color="#FFC200" stop-opacity="0"/>
<stop offset="0.203" stop-color="#FFBB00" stop-opacity="0.203"/>
<stop offset="0.499" stop-color="#FFA700" stop-opacity="0.499"/>
<stop offset="0.852" stop-color="#FF8800" stop-opacity="0.852"/>
<stop offset="1" stop-color="#FF7800"/>
</linearGradient>
<linearGradient id="paint23_linear" x1="700.322" y1="743.8" x2="686.542" y2="675.938" gradientUnits="userSpaceOnUse">
<stop stop-color="#FFC200" stop-opacity="0"/>
<stop offset="0.203" stop-color="#FFBB00" stop-opacity="0.203"/>
<stop offset="0.499" stop-color="#FFA700" stop-opacity="0.499"/>
<stop offset="0.852" stop-color="#FF8800" stop-opacity="0.852"/>
<stop offset="1" stop-color="#FF7800"/>
</linearGradient>
<linearGradient id="paint24_linear" x1="633.504" y1="779.463" x2="687.475" y2="725.492" gradientUnits="userSpaceOnUse">
<stop stop-color="#FFC200" stop-opacity="0"/>
<stop offset="0.203" stop-color="#FFBB00" stop-opacity="0.203"/>
<stop offset="0.499" stop-color="#FFA700" stop-opacity="0.499"/>
<stop offset="0.852" stop-color="#FF8800" stop-opacity="0.852"/>
<stop offset="1" stop-color="#FF7800"/>
</linearGradient>
<linearGradient id="paint25_linear" x1="595.016" y1="711.211" x2="634.797" y2="744.492" gradientUnits="userSpaceOnUse">
<stop stop-color="#FFC200" stop-opacity="0"/>
<stop offset="0.203" stop-color="#FFBB00" stop-opacity="0.203"/>
<stop offset="0.499" stop-color="#FFA700" stop-opacity="0.499"/>
<stop offset="0.852" stop-color="#FF8800" stop-opacity="0.852"/>
<stop offset="1" stop-color="#FF7800"/>
</linearGradient>
<linearGradient id="paint26_linear" x1="624.838" y1="656.313" x2="608.717" y2="702.074" gradientUnits="userSpaceOnUse">
<stop stop-color="#FFC200" stop-opacity="0"/>
<stop offset="0.203" stop-color="#FFBB00" stop-opacity="0.203"/>
<stop offset="0.499" stop-color="#FFA700" stop-opacity="0.499"/>
<stop offset="0.852" stop-color="#FF8800" stop-opacity="0.852"/>
<stop offset="1" stop-color="#FF7800"/>
</linearGradient>
<linearGradient id="paint27_linear" x1="685.519" y1="661.092" x2="567.086" y2="711.533" gradientUnits="userSpaceOnUse">
<stop stop-color="#FFC200" stop-opacity="0"/>
<stop offset="0.203" stop-color="#FFBB00" stop-opacity="0.203"/>
<stop offset="0.499" stop-color="#FFA700" stop-opacity="0.499"/>
<stop offset="0.852" stop-color="#FF8800" stop-opacity="0.852"/>
<stop offset="1" stop-color="#FF7800"/>
</linearGradient>
<clipPath id="clip0">
<rect width="512" height="512" fill="white" transform="translate(0 265)"/>
</clipPath>
<clipPath id="clip1">
<rect width="156" height="156" fill="white" transform="translate(495 127)"/>
</clipPath>
<clipPath id="clip2">
<rect width="156" height="156" fill="white" transform="translate(661 346)"/>
</clipPath>
<clipPath id="clip3">
<rect width="156" height="156" fill="white" transform="translate(256)"/>
</clipPath>
<clipPath id="clip4">
<rect width="156" height="156" fill="white" transform="translate(573 621)"/>
</clipPath>
</defs>
</svg>
